<svg width="512" height="512" viewBox="0 0 512 512" fill="none" xmlns="http://www.w3.org/2000/svg">
  <defs>
    <linearGradient id="bg" x1="72" y1="52" x2="446" y2="464" gradientUnits="userSpaceOnUse">
      <stop stop-color="#17344F"/>
      <stop offset="1" stop-color="#09131F"/>
    </linearGradient>
    <linearGradient id="shield" x1="256" y1="82" x2="256" y2="414" gradientUnits="userSpaceOnUse">
      <stop stop-color="#F3D58E"/>
      <stop offset="1" stop-color="#C37F18"/>
    </linearGradient>
    <linearGradient id="book" x1="164" y1="256" x2="348" y2="332" gradientUnits="userSpaceOnUse">
      <stop stop-color="#F8E4AF"/>
      <stop offset="1" stop-color="#D59A2E"/>
    </linearGradient>
    <filter id="shadow" x="36" y="24" width="440" height="464" filterUnits="userSpaceOnUse" color-interpolation-filters="sRGB">
      <feFlood flood-opacity="0" result="BackgroundImageFix"/>
      <feColorMatrix in="SourceAlpha" type="matrix" values="0 0 0 0 0 0 0 0 0 0 0 0 0 0 0 0 0 0 127 0" result="hardAlpha"/>
      <feOffset dy="20"/>
      <feGaussianBlur stdDeviation="18"/>
      <feComposite in2="hardAlpha" operator="out"/>
      <feColorMatrix type="matrix" values="0 0 0 0 0.0235294 0 0 0 0 0.054902 0 0 0 0 0.0901961 0 0 0 0.42 0"/>
      <feBlend mode="normal" in2="BackgroundImageFix" result="effect1_dropShadow_1_2"/>
      <feBlend mode="normal" in="SourceGraphic" in2="effect1_dropShadow_1_2" result="shape"/>
    </filter>
  </defs>

  <rect x="36" y="36" width="440" height="440" rx="110" fill="url(#bg)"/>
  <circle cx="386" cy="128" r="74" fill="#D5A84F" fill-opacity="0.12"/>
  <circle cx="118" cy="396" r="88" fill="#D5A84F" fill-opacity="0.08"/>

  <g filter="url(#shadow)">
    <path d="M256 82L352 114.667V218.684C352 286.03 313.368 347.354 256 377.333C198.632 347.354 160 286.03 160 218.684V114.667L256 82Z" fill="url(#shield)"/>
    <path d="M256 104L336 131.349V218.684C336 277.728 303.445 331.811 256 359.254C208.555 331.811 176 277.728 176 218.684V131.349L256 104Z" fill="#10263B"/>
    <path d="M196 212C217.261 200.354 239.115 194.531 261.561 194.531C283.625 194.531 305.438 200.354 327 212V309.272C305.361 297.827 283.548 292.104 261.561 292.104C239.421 292.104 217.567 297.827 196 309.272V212Z" fill="url(#book)"/>
    <path d="M316 216.944C298.13 208.398 279.984 204.125 261.561 204.125C241.587 204.125 222.152 209.08 203.256 218.99V297.71C222.021 289.934 241.456 286.047 261.561 286.047C279.854 286.047 298 289.934 316 297.71V216.944Z" fill="#17344F"/>
    <path d="M261.561 194.531V292.104" stroke="#E7B958" stroke-width="11" stroke-linecap="round"/>
    <path d="M188 170H324" stroke="#E7B958" stroke-width="14" stroke-linecap="round"/>
    <path d="M222 156L238 132H274L290 156" stroke="#E7B958" stroke-width="14" stroke-linecap="round" stroke-linejoin="round"/>
    <circle cx="256" cy="156" r="10" fill="#10263B" stroke="#E7B958" stroke-width="6"/>
    <path d="M198 338C220.342 326.641 241.529 320.962 261.561 320.962C281.516 320.962 302.662 326.641 325 338" stroke="#E7B958" stroke-width="12" stroke-linecap="round"/>
  </g>

  <path d="M134 113C155.875 97.8574 179.525 90.2861 204.949 90.2861H307.051C332.475 90.2861 356.125 97.8574 378 113" stroke="#F0D698" stroke-width="10" stroke-linecap="round" opacity="0.45"/>
</svg>
